<svg xmlns="http://www.w3.org/2000/svg" viewBox="0 0 128 128" width="128" height="128">
  <!-- Background circle -->
  <circle cx="64" cy="64" r="58" fill="#41BDF5"/>
  <!-- House shape -->
  <path d="M64 22 L108 58 L100 58 L100 100 L72 100 L72 74 L56 74 L56 100 L28 100 L28 58 L20 58 Z" 
        fill="white" stroke="none"/>
  <!-- Door -->
  <rect x="54" y="62" width="20" height="38" rx="2" fill="#41BDF5"/>
  <!-- Window left -->
  <rect x="36" y="66" width="14" height="14" rx="2" fill="#41BDF5"/>
  <!-- Window right -->  
  <rect x="78" y="66" width="14" height="14" rx="2" fill="#41BDF5"/>
  <!-- WiFi signal arcs -->
  <path d="M90 24 Q100 20 104 30" stroke="white" stroke-width="3" fill="none" stroke-linecap="round"/>
  <path d="M86 30 Q98 24 104 36" stroke="white" stroke-width="3" fill="none" stroke-linecap="round"/>
  <path d="M82 36 Q96 28 104 42" stroke="white" stroke-width="3" fill="none" stroke-linecap="round"/>
  <!-- WiFi dot -->
  <circle cx="88" cy="22" r="3" fill="white"/>
</svg>
